# xmcd CD database file
#
# Track frame offsets:
#	150
#	20198
#	34960
#
# Disc length: 713 seconds
#
# Revision: 2
# Processed by: cddbd v1.5.1PL0 Copyright (c) Steve Scherf et al.
# Submitted via: CDex 1.51
#
DISCID=2302c703
DTITLE=WINO - Go Straight Song!
DYEAR=2001
DGENRE=Rock
TTITLE0=Go Straight Song!
TTITLE1=No Enemies
TTITLE2=Come Together Now
EXTD=YEAR: 2001
EXTT0=
EXTT1=
EXTT2=
PLAYORDER=
